<svg width="131" height="40" viewBox="0 0 131 40" fill="none" xmlns="http://www.w3.org/2000/svg">
<path d="M1.63325 21.5998H0.583008V1.69902H1.06774L9.8467 14.6251L18.5449 1.69902H19.0565V21.5998H18.0063V4.3381L9.98135 16.2678H9.71205L1.63325 4.36503V21.5998ZM36.3314 10.4241V7.19261H37.4086V21.5998H36.3314V18.2875C35.1735 20.5496 32.9383 21.9499 30.2723 21.9499C28.2526 21.9499 26.5561 21.2228 25.1825 19.7686C23.8361 18.2875 23.1628 16.4832 23.1628 14.3289C23.1628 12.2015 23.8361 10.4241 25.1825 8.99687C26.5291 7.56962 28.2257 6.84253 30.2723 6.84253C32.9653 6.84253 35.1735 8.18899 36.3314 10.4241ZM30.2454 20.9535C32.0227 20.9535 33.5038 20.3072 34.6618 19.0146C35.8467 17.722 36.4391 16.1601 36.4391 14.302C36.4391 12.4977 35.8467 10.9896 34.6618 9.72397C33.5038 8.45829 32.0227 7.83891 30.2454 7.83891C28.495 7.83891 27.0677 8.45829 25.9367 9.69704C24.8055 10.9358 24.24 12.4977 24.24 14.3558C24.24 16.2139 24.8055 17.8028 25.9367 19.0684C27.0677 20.3341 28.495 20.9535 30.2454 20.9535ZM57.9879 21.896C55.1334 21.896 52.7098 20.9535 50.7439 19.0415C48.7781 17.1295 47.7817 14.7059 47.7817 11.7167C47.7817 8.70065 48.7781 6.22315 50.7709 4.28424C52.7906 2.3184 55.2142 1.34894 58.0418 1.34894C59.8461 1.34894 61.5426 1.75288 63.1045 2.58769C64.6934 3.4225 65.8782 4.47274 66.7131 5.79228L65.8782 6.30394C65.1511 5.14598 64.074 4.17652 62.6467 3.44943C61.2195 2.72234 59.6845 2.34533 58.0149 2.34533C55.4027 2.34533 53.2215 3.23399 51.471 4.9844C49.7206 6.73481 48.8589 8.94301 48.8589 11.6359C48.8589 14.302 49.7206 16.5371 51.4441 18.2875C53.1945 20.0379 55.3758 20.8996 57.9879 20.8996C61.1925 20.8996 64.1817 19.4455 65.9321 17.0487L66.6861 17.6143C64.7203 20.1995 61.5695 21.896 57.9879 21.896ZM70.9959 21.5998H69.9188V1.32201H70.9421V10.074C71.7769 7.89277 73.5273 6.8156 76.2202 6.8156C77.8629 6.8156 79.2363 7.35418 80.3135 8.43136C81.4176 9.4816 81.9562 10.9896 81.9562 12.9286V21.5998H80.879V12.9286C80.879 9.83168 79.1286 7.81198 76.2202 7.81198C74.1197 7.81198 70.9959 8.99687 70.9959 13.4671V21.5998ZM93.3568 0.702637H94.7841L92.6297 4.90361H91.7411L93.3568 0.702637ZM99.0389 13.4941C99.0389 13.6826 99.012 14.1134 98.9581 14.7597H86.436C86.6245 18.5299 88.9673 20.9266 92.7644 20.9266C94.7302 20.9266 96.8576 20.2264 98.1502 19.1492L98.7158 19.9571C97.3962 21.0612 95.1072 21.923 92.7375 21.923C87.5401 21.923 85.3588 18.1259 85.3588 14.3558C85.3588 12.1745 86.0051 10.3972 87.2977 8.96994C88.6173 7.54269 90.3407 6.84253 92.4682 6.84253C94.3532 6.84253 95.9151 7.43497 97.1539 8.64679C98.4195 9.83168 99.0389 11.4474 99.0389 13.4941ZM92.4682 7.83891C90.7716 7.83891 89.3713 8.3775 88.2672 9.45467C87.1631 10.5318 86.5706 11.9591 86.4629 13.7634H97.9617C97.9617 11.9591 97.4501 10.5049 96.4537 9.45467C95.4573 8.3775 94.1109 7.83891 92.4682 7.83891ZM103.606 21.5998H102.529V7.19261H103.525V9.61625C104.306 7.75812 105.706 6.8156 107.726 6.8156C108.345 6.8156 108.965 6.89638 109.557 7.08489L109.395 8.05435C108.911 7.89277 108.399 7.81198 107.834 7.81198C106.406 7.81198 105.329 8.32364 104.629 9.34695C103.956 10.3703 103.606 11.609 103.606 13.0901V21.5998ZM111.295 3.71872C111.295 3.07242 111.807 2.58769 112.426 2.58769C113.046 2.58769 113.53 3.07242 113.53 3.71872C113.53 4.3381 113.046 4.82283 112.426 4.82283C111.807 4.82283 111.295 4.3381 111.295 3.71872ZM112.938 7.19261V21.5998H111.861V7.19261H112.938ZM130.36 13.4941C130.36 13.6826 130.333 14.1134 130.279 14.7597H117.757C117.946 18.5299 120.288 20.9266 124.085 20.9266C126.051 20.9266 128.179 20.2264 129.471 19.1492L130.037 19.9571C128.717 21.0612 126.428 21.923 124.059 21.923C118.861 21.923 116.68 18.1259 116.68 14.3558C116.68 12.1745 117.326 10.3972 118.619 8.96994C119.938 7.54269 121.662 6.84253 123.789 6.84253C125.674 6.84253 127.236 7.43497 128.475 8.64679C129.741 9.83168 130.36 11.4474 130.36 13.4941ZM123.789 7.83891C122.093 7.83891 120.692 8.3775 119.588 9.45467C118.484 10.5318 117.892 11.9591 117.784 13.7634H129.283C129.283 11.9591 128.771 10.5049 127.775 9.45467C126.778 8.3775 125.432 7.83891 123.789 7.83891Z" fill="#494949"/>
<mask id="mask0_2_2267" style="mask-type:luminance" maskUnits="userSpaceOnUse" x="0" y="0" width="131" height="23">
<path d="M131 0H0V22.1606H131V0Z" fill="white"/>
<path d="M1.63325 21.319H0.583008V1.41826H1.06774L9.8467 14.3443L18.5449 1.41826H19.0565V21.319H18.0063V4.05734L9.98135 15.987H9.71205L1.63325 4.08426V21.319ZM36.3314 10.1434V6.91184H37.4086V21.319H36.3314V18.0067C35.1735 20.2688 32.9383 21.6691 30.2723 21.6691C28.2526 21.6691 26.5561 20.942 25.1825 19.4878C23.8361 18.0067 23.1628 16.2025 23.1628 14.0481C23.1628 11.9207 23.8361 10.1434 25.1825 8.71611C26.5291 7.28886 28.2257 6.56176 30.2723 6.56176C32.9653 6.56176 35.1735 7.90823 36.3314 10.1434ZM30.2454 20.6727C32.0227 20.6727 33.5038 20.0264 34.6618 18.7338C35.8467 17.4412 36.4391 15.8793 36.4391 14.0212C36.4391 12.2169 35.8467 10.7089 34.6618 9.4432C33.5038 8.17752 32.0227 7.55815 30.2454 7.55815C28.495 7.55815 27.0677 8.17752 25.9367 9.41627C24.8055 10.655 24.24 12.2169 24.24 14.075C24.24 15.9332 24.8055 17.522 25.9367 18.7877C27.0677 20.0534 28.495 20.6727 30.2454 20.6727ZM57.9879 21.6153C55.1334 21.6153 52.7098 20.6727 50.7439 18.7608C48.7781 16.8488 47.7817 14.4251 47.7817 11.436C47.7817 8.41989 48.7781 5.94239 50.7709 4.00348C52.7906 2.03764 55.2142 1.06818 58.0418 1.06818C59.8461 1.06818 61.5426 1.47212 63.1045 2.30693C64.6934 3.14174 65.8782 4.19198 66.7131 5.51152L65.8782 6.02318C65.1511 4.86522 64.074 3.89576 62.6467 3.16867C61.2195 2.44158 59.6845 2.06456 58.0149 2.06456C55.4027 2.06456 53.2215 2.95323 51.471 4.70364C49.7206 6.45405 48.8589 8.66225 48.8589 11.3552C48.8589 14.0212 49.7206 16.2563 51.4441 18.0067C53.1945 19.7571 55.3758 20.6189 57.9879 20.6189C61.1925 20.6189 64.1817 19.1647 65.9321 16.768L66.6861 17.3335C64.7203 19.9187 61.5695 21.6153 57.9879 21.6153ZM70.9959 21.319H69.9188V1.04125H70.9421V9.79328C71.7769 7.61201 73.5273 6.53483 76.2202 6.53483C77.8629 6.53483 79.2363 7.07342 80.3135 8.15059C81.4176 9.20084 81.9562 10.7089 81.9562 12.6478V21.319H80.879V12.6478C80.879 9.55092 79.1286 7.53122 76.2202 7.53122C74.1197 7.53122 70.9959 8.71611 70.9959 13.1864V21.319ZM93.3568 0.421875H94.7841L92.6297 4.62285H91.7411L93.3568 0.421875ZM99.0389 13.2133C99.0389 13.4018 99.012 13.8327 98.9581 14.479H86.436C86.6245 18.2491 88.9673 20.6458 92.7644 20.6458C94.7302 20.6458 96.8576 19.9456 98.1502 18.8685L98.7158 19.6763C97.3962 20.7805 95.1072 21.6422 92.7375 21.6422C87.5401 21.6422 85.3588 17.8452 85.3588 14.075C85.3588 11.8938 86.0051 10.1164 87.2977 8.68918C88.6173 7.26193 90.3407 6.56176 92.4682 6.56176C94.3532 6.56176 95.9151 7.15421 97.1539 8.36603C98.4195 9.55092 99.0389 11.1667 99.0389 13.2133ZM92.4682 7.55815C90.7716 7.55815 89.3713 8.09674 88.2672 9.17391C87.1631 10.2511 86.5706 11.6783 86.4629 13.4826H97.9617C97.9617 11.6783 97.4501 10.2242 96.4537 9.17391C95.4573 8.09674 94.1109 7.55815 92.4682 7.55815ZM103.606 21.319H102.529V6.91184H103.525V9.33548C104.306 7.47736 105.706 6.53483 107.726 6.53483C108.345 6.53483 108.965 6.61562 109.557 6.80413L109.395 7.77358C108.911 7.61201 108.399 7.53122 107.834 7.53122C106.406 7.53122 105.329 8.04288 104.629 9.06619C103.956 10.0895 103.606 11.3283 103.606 12.8094V21.319ZM111.295 3.43796C111.295 2.79166 111.807 2.30693 112.426 2.30693C113.046 2.30693 113.53 2.79166 113.53 3.43796C113.53 4.05734 113.046 4.54206 112.426 4.54206C111.807 4.54206 111.295 4.05734 111.295 3.43796ZM112.938 6.91184V21.319H111.861V6.91184H112.938ZM130.36 13.2133C130.36 13.4018 130.333 13.8327 130.279 14.479H117.757C117.946 18.2491 120.288 20.6458 124.085 20.6458C126.051 20.6458 128.179 19.9456 129.471 18.8685L130.037 19.6763C128.717 20.7805 126.428 21.6422 124.059 21.6422C118.861 21.6422 116.68 17.8452 116.68 14.075C116.68 11.8938 117.326 10.1164 118.619 8.68918C119.938 7.26193 121.662 6.56176 123.789 6.56176C125.674 6.56176 127.236 7.15421 128.475 8.36603C129.741 9.55092 130.36 11.1667 130.36 13.2133ZM123.789 7.55815C122.093 7.55815 120.692 8.09674 119.588 9.17391C118.484 10.2511 117.892 11.6783 117.784 13.4826H129.283C129.283 11.6783 128.771 10.2242 127.775 9.17391C126.778 8.09674 125.432 7.55815 123.789 7.55815Z" fill="black"/>
</mask>
<g mask="url(#mask0_2_2267)">
<path d="M1.75129 21.5982V22.019H2.17206V21.5982H1.75129ZM0.701044 21.5982H0.280273V22.019H0.701044V21.5982ZM0.701044 1.69743V1.27666H0.280273V1.69743H0.701044ZM1.18577 1.69743L1.53386 1.46101L1.40864 1.27666H1.18577V1.69743ZM9.96474 14.6235L9.61665 14.8599L9.96634 15.3748L10.3138 14.8584L9.96474 14.6235ZM18.6629 1.69743V1.27666H18.4389L18.3138 1.46253L18.6629 1.69743ZM19.1746 1.69743H19.5953V1.27666H19.1746V1.69743ZM19.1746 21.5982V22.019H19.5953V21.5982H19.1746ZM18.1243 21.5982H17.7036V22.019H18.1243V21.5982ZM18.1243 4.3365H18.5451V2.95713L17.7752 4.10166L18.1243 4.3365ZM10.0994 16.2662V16.687H10.3235L10.4485 16.501L10.0994 16.2662ZM9.83009 16.2662L9.48195 16.5025L9.60714 16.687H9.83009V16.2662ZM1.75129 4.36343L2.09943 4.12713L1.33052 2.99425V4.36343H1.75129ZM1.75129 21.1774H0.701044V22.019H1.75129V21.1774ZM1.12182 21.5982V1.69743H0.280273V21.5982H1.12182ZM0.701044 2.1182H1.18577V1.27666H0.701044V2.1182ZM0.837683 1.93385L9.61665 14.8599L10.3128 14.3871L1.53386 1.46101L0.837683 1.93385ZM10.3138 14.8584L19.012 1.93233L18.3138 1.46253L9.61564 14.3886L10.3138 14.8584ZM18.6629 2.1182H19.1746V1.27666H18.6629V2.1182ZM18.7538 1.69743V21.5982H19.5953V1.69743H18.7538ZM19.1746 21.1774H18.1243V22.019H19.1746V21.1774ZM18.5451 21.5982V4.3365H17.7036V21.5982H18.5451ZM17.7752 4.10166L9.75026 16.0314L10.4485 16.501L18.4735 4.57135L17.7752 4.10166ZM10.0994 15.8454H9.83009V16.687H10.0994V15.8454ZM10.1782 16.0299L2.09943 4.12713L1.40314 4.59974L9.48195 16.5025L10.1782 16.0299ZM1.33052 4.36343V21.5982H2.17206V4.36343H1.33052ZM36.4495 10.4225L36.0758 10.6161L36.8702 10.4225H36.4495ZM36.4495 7.19101V6.77024H36.0287V7.19101H36.4495ZM37.5266 7.19101H37.9474V6.77024H37.5266V7.19101ZM37.5266 21.5982V22.019H37.9474V21.5982H37.5266ZM36.4495 21.5982H36.0287V22.019H36.4495V21.5982ZM36.4495 18.2859H36.8702L36.0747 18.0942L36.4495 18.2859ZM25.3006 19.767L24.9892 20.0501L24.9919 20.053L24.9947 20.0559L25.3006 19.767ZM34.7798 19.013L34.4696 18.7287L34.4679 18.7304L34.4662 18.7322L34.7798 19.013ZM34.7798 9.72237L34.4693 10.0064L34.471 10.0082L34.4724 10.0099L34.7798 9.72237ZM36.8702 10.4225V7.19101H36.0287V10.4225H36.8702ZM36.4495 7.61178H37.5266V6.77024H36.4495V7.61178ZM37.1059 7.19101V21.5982H37.9474V7.19101H37.1059ZM37.5266 21.1774H36.4495V22.019H37.5266V21.1774ZM36.8702 21.5982V18.2859H36.0287V21.5982H36.8702ZM36.0747 18.0942C34.9891 20.2152 32.8987 21.5275 30.3904 21.5275V22.3691C33.2137 22.3691 35.5936 20.8808 36.8239 18.4776L36.0747 18.0942ZM30.3904 21.5275C28.4851 21.5275 26.8996 20.8472 25.6065 19.4781L24.9947 20.0559C26.4483 21.5952 28.2559 22.3691 30.3904 22.3691V21.5275ZM25.6119 19.484C24.341 18.086 23.7016 16.3849 23.7016 14.3273H22.8601C22.8601 16.5784 23.5672 18.4858 24.9892 20.0501L25.6119 19.484ZM23.7016 14.3273C23.7016 12.2973 24.3403 10.6263 25.6066 9.28401L24.9945 8.70655C23.5679 10.2188 22.8601 12.1024 22.8601 14.3273H23.7016ZM25.6066 9.28401C26.8713 7.94355 28.4559 7.2617 30.3904 7.2617V6.42016C28.2312 6.42016 26.4228 7.1925 24.9945 8.70655L25.6066 9.28401ZM30.3904 7.2617C32.9318 7.2617 34.9928 8.52567 36.0758 10.6161L36.8228 10.229C35.59 7.84913 33.2345 6.42016 30.3904 6.42016V7.2617ZM30.3634 21.3727C32.2558 21.3727 33.8525 20.6787 35.0932 19.2938L34.4662 18.7322C33.391 19.9325 32.0255 20.5311 30.3634 20.5311V21.3727ZM35.0898 19.2973C36.3499 17.9228 36.9779 16.2578 36.9779 14.3004H36.1364C36.1364 16.0592 35.5793 17.518 34.4696 18.7287L35.0898 19.2973ZM36.9779 14.3004C36.9779 12.3923 36.3468 10.7806 35.087 9.43482L34.4724 10.0099C35.5824 11.1955 36.1364 12.5999 36.1364 14.3004H36.9779ZM35.0901 9.43835C33.8471 8.0796 32.2504 7.41655 30.3634 7.41655V8.25809C32.0308 8.25809 33.3963 8.83379 34.4693 10.0064L35.0901 9.43835ZM30.3634 7.41655C28.4994 7.41655 26.9577 8.08221 25.7439 9.41173L26.3653 9.97915C27.4135 8.83118 28.7263 8.25809 30.3634 8.25809V7.41655ZM25.7439 9.41173C24.5337 10.7372 23.9373 12.4042 23.9373 14.3542H24.7788C24.7788 12.588 25.3134 11.1312 26.3653 9.97915L25.7439 9.41173ZM23.9373 14.3542C23.9373 16.3035 24.5331 17.9957 25.7408 19.3472L26.3684 18.7865C25.314 17.6066 24.7788 16.1212 24.7788 14.3542H23.9373ZM25.7408 19.3472C26.9555 20.7063 28.4989 21.3727 30.3634 21.3727V20.5311C28.7269 20.5311 27.4158 19.9587 26.3684 18.7865L25.7408 19.3472ZM63.2226 2.5861L63.0242 2.95719L63.0268 2.95859L63.2226 2.5861ZM66.8311 5.79069L67.051 6.14944L67.4148 5.9264L67.1868 5.56572L66.8311 5.79069ZM65.9963 6.30235L65.64 6.52611L65.8614 6.8786L66.2162 6.66109L65.9963 6.30235ZM51.5621 18.2859L51.2623 18.5811L51.2645 18.5834L51.5621 18.2859ZM66.0501 17.0471L66.3026 16.7105L65.9618 16.4548L65.7104 16.799L66.0501 17.0471ZM66.8042 17.6127L67.1391 17.8673L67.3955 17.5302L67.0566 17.2761L66.8042 17.6127ZM58.106 21.4737C55.3539 21.4737 53.0377 20.5691 51.1554 18.7383L50.5686 19.3416C52.618 21.3347 55.1491 22.3152 58.106 22.3152V21.4737ZM51.1554 18.7383C49.2768 16.9113 48.3205 14.5993 48.3205 11.7151H47.479C47.479 14.8093 48.5155 17.3446 50.5686 19.3416L51.1554 18.7383ZM48.3205 11.7151C48.3205 8.80198 49.2782 6.43677 51.1823 4.58423L50.5955 3.98107C48.5141 6.00635 47.479 8.59614 47.479 11.7151H48.3205ZM51.1823 4.58423C53.1221 2.69612 55.44 1.76812 58.1598 1.76812V0.926578C55.2245 0.926578 52.6951 1.93749 50.5955 3.98107L51.1823 4.58423ZM58.1598 1.76812C59.899 1.76812 61.5268 2.15688 63.0242 2.95719L63.4209 2.21501C61.7945 1.34569 60.0292 0.926578 58.1598 0.926578V1.76812ZM63.0268 2.95859C64.5606 3.76448 65.686 4.76757 66.4754 6.01566L67.1868 5.56572C66.3065 4.17473 65.0622 3.07733 63.4184 2.2136L63.0268 2.95859ZM66.6112 5.43194L65.7764 5.9436L66.2162 6.66109L67.051 6.14944L66.6112 5.43194ZM66.3525 6.07858C65.5806 4.84914 64.4428 3.83051 62.9558 3.0729L62.5737 3.82277C63.9412 4.51934 64.9578 5.43962 65.64 6.52611L66.3525 6.07858ZM62.9558 3.0729C61.4693 2.31571 59.869 1.92296 58.1329 1.92296V2.7645C59.736 2.7645 61.2057 3.12578 62.5737 3.82277L62.9558 3.0729ZM58.1329 1.92296C55.4144 1.92296 53.1243 2.85236 51.2915 4.68527L51.8867 5.28035C53.5546 3.61244 55.6271 2.7645 58.1329 2.7645V1.92296ZM51.2915 4.68527C49.4544 6.52258 48.5562 8.84164 48.5562 11.6344H49.3977C49.3977 9.0412 50.223 6.94385 51.8867 5.28035L51.2915 4.68527ZM48.5562 11.6344C48.5562 14.3992 49.4535 16.7441 51.2623 18.5811L51.862 17.9907C50.2238 16.3269 49.3977 14.2016 49.3977 11.6344H48.5562ZM51.2645 18.5834C53.0996 20.4186 55.3909 21.3188 58.106 21.3188V20.4773C55.5968 20.4773 53.5255 19.6541 51.8598 17.9884L51.2645 18.5834ZM58.106 21.3188C61.4332 21.3188 64.5536 19.8096 66.3898 17.2953L65.7104 16.799C64.0459 19.0781 61.188 20.4773 58.106 20.4773V21.3188ZM65.7977 17.3838L66.5517 17.9493L67.0566 17.2761L66.3026 16.7105L65.7977 17.3838ZM66.4692 17.358C64.5802 19.8421 61.5518 21.4737 58.106 21.4737V22.3152C61.8233 22.3152 65.0964 20.5537 67.1391 17.8673L66.4692 17.358ZM71.114 21.5982V22.019H71.5347V21.5982H71.114ZM70.0368 21.5982H69.616V22.019H70.0368V21.5982ZM70.0368 1.32042V0.899648H69.616V1.32042H70.0368ZM71.0601 1.32042H71.4809V0.899648H71.0601V1.32042ZM71.0601 10.0725H70.6393L71.4531 10.2228L71.0601 10.0725ZM80.4315 8.42976L80.1339 8.7273L80.1375 8.73101L80.1415 8.73462L80.4315 8.42976ZM82.0742 21.5982V22.019H82.495V21.5982H82.0742ZM80.997 21.5982H80.5763V22.019H80.997V21.5982ZM71.114 21.1774H70.0368V22.019H71.114V21.1774ZM70.4576 21.5982V1.32042H69.616V21.5982H70.4576ZM70.0368 1.74119H71.0601V0.899648H70.0368V1.74119ZM70.6393 1.32042V10.0725H71.4809V1.32042H70.6393ZM71.4531 10.2228C71.8419 9.20651 72.4335 8.47052 73.2232 7.98335C74.0179 7.49321 75.0462 7.23477 76.3383 7.23477V6.39323C74.9374 6.39323 73.7441 6.67338 72.7813 7.26715C71.8141 7.86388 71.1129 8.75712 70.6671 9.92204L71.4531 10.2228ZM76.3383 7.23477C77.88 7.23477 79.1428 7.7363 80.1339 8.7273L80.7289 8.13222C79.5656 6.96887 78.0817 6.39323 76.3383 6.39323V7.23477ZM80.1415 8.73462C81.1387 9.68316 81.6534 11.0663 81.6534 12.927H82.495C82.495 10.9098 81.9326 9.27686 80.7216 8.1249L80.1415 8.73462ZM81.6534 12.927V21.5982H82.495V12.927H81.6534ZM82.0742 21.1774H80.997V22.019H82.0742V21.1774ZM81.4178 21.5982V12.927H80.5763V21.5982H81.4178ZM81.4178 12.927C81.4178 11.3016 80.9578 9.91332 80.0714 8.92619C79.1799 7.93365 77.8951 7.38962 76.3383 7.38962V8.23116C77.6895 8.23116 78.7344 8.69698 79.4452 9.48851C80.1608 10.2854 80.5763 11.4555 80.5763 12.927H81.4178ZM76.3383 7.38962C75.219 7.38962 73.8097 7.70365 72.6717 8.63614C71.5179 9.58155 70.6932 11.1219 70.6932 13.4655H71.5347C71.5347 11.339 72.2719 10.0517 73.2049 9.2871C74.1539 8.50957 75.3567 8.23116 76.3383 8.23116V7.38962ZM70.6932 13.4655V21.5982H71.5347V13.4655H70.6932ZM93.4749 0.701044V0.280273H93.1857L93.0819 0.549988L93.4749 0.701044ZM94.9021 0.701044L95.2763 0.893056L95.5905 0.280273H94.9021V0.701044ZM92.7478 4.90202V5.32279H93.0047L93.122 5.09403L92.7478 4.90202ZM91.8591 4.90202L91.4661 4.75096L91.2462 5.32279H91.8591V4.90202ZM99.0762 14.7582V15.1789H99.4633L99.4952 14.7931L99.0762 14.7582ZM86.554 14.7582V14.3374H86.1116L86.1335 14.7792L86.554 14.7582ZM98.2683 19.1476L98.6128 18.9063L98.3505 18.5314L97.9987 18.8244L98.2683 19.1476ZM98.8338 19.9555L99.1037 20.2782L99.3999 20.0305L99.1783 19.7142L98.8338 19.9555ZM87.4158 8.96835L87.1066 8.6827L87.1052 8.6843L87.1038 8.6859L87.4158 8.96835ZM97.2719 8.6452L96.9776 8.94596L96.9807 8.94922L96.9841 8.95236L97.2719 8.6452ZM86.5809 13.7618L86.1607 13.7367L86.1341 14.1825H86.5809V13.7618ZM98.0798 13.7618V14.1825H98.5005V13.7618H98.0798ZM96.5717 9.45308L96.2626 9.73881L96.2646 9.74074L96.2663 9.74268L96.5717 9.45308ZM93.4749 1.12182H94.9021V0.280273H93.4749V1.12182ZM94.5276 0.509033L92.3733 4.71001L93.122 5.09403L95.2763 0.893056L94.5276 0.509033ZM92.7478 4.48125H91.8591V5.32279H92.7478V4.48125ZM92.2518 5.05308L93.8676 0.852101L93.0819 0.549988L91.4661 4.75096L92.2518 5.05308ZM98.7362 13.4925C98.7362 13.6603 98.7109 14.0731 98.6568 14.7232L99.4952 14.7931C99.5488 14.1506 99.5777 13.7017 99.5777 13.4925H98.7362ZM99.0762 14.3374H86.554V15.1789H99.0762V14.3374ZM86.1335 14.7792C86.232 16.7465 86.8957 18.3957 88.0691 19.5547C89.2447 20.7156 90.8925 21.3457 92.8824 21.3457V20.5042C91.0751 20.5042 89.6529 19.936 88.6607 18.956C87.6663 17.9741 87.0643 16.5399 86.9742 14.7371L86.1335 14.7792ZM92.8824 21.3457C94.9288 21.3457 97.1566 20.6217 98.5376 19.4709L97.9987 18.8244C96.7945 19.828 94.7675 20.5042 92.8824 20.5042V21.3457ZM97.9235 19.3889L98.4891 20.1968L99.1783 19.7142L98.6128 18.9063L97.9235 19.3889ZM98.5637 19.6328C97.3283 20.6665 95.138 21.5006 92.8555 21.5006V22.3421C95.3122 22.3421 97.7 21.4527 99.1037 20.2782L98.5637 19.6328ZM92.8555 21.5006C90.3693 21.5006 88.6469 20.5977 87.5389 19.2807C86.4216 17.9524 85.8976 16.1639 85.8976 14.3542H85.0561C85.0561 16.3146 85.6224 18.3097 86.8951 19.8224C88.1771 21.3465 90.144 22.3421 92.8555 22.3421V21.5006ZM85.8976 14.3542C85.8976 12.264 86.5134 10.5913 87.7274 9.2508L87.1038 8.6859C85.7327 10.1999 85.0561 12.0819 85.0561 14.3542H85.8976ZM87.7246 9.254C88.9552 7.92299 90.5614 7.2617 92.5862 7.2617V6.42016C90.3558 6.42016 88.5151 7.1592 87.1066 8.6827L87.7246 9.254ZM92.5862 7.2617C94.3742 7.2617 95.8261 7.8197 96.9776 8.94596L97.5659 8.3444C96.2399 7.04705 94.568 6.42016 92.5862 6.42016V7.2617ZM96.9841 8.95236C98.1479 10.042 98.7362 11.537 98.7362 13.4925H99.5777C99.5777 11.3547 98.9269 9.61822 97.5594 8.33803L96.9841 8.95236ZM92.5862 7.41655C90.7917 7.41655 89.282 7.99006 88.0912 9.15189L88.6789 9.75426C89.6963 8.76175 90.9873 8.25809 92.5862 8.25809V7.41655ZM88.0912 9.15189C86.8985 10.3154 86.2735 11.8485 86.1607 13.7367L87.0009 13.7868C87.1036 12.0665 87.6635 10.7451 88.6789 9.75426L88.0912 9.15189ZM86.5809 14.1825H98.0798V13.341H86.5809V14.1825ZM98.5005 13.7618C98.5005 11.8767 97.9642 10.3095 96.8769 9.16348L96.2663 9.74268C97.1718 10.6971 97.659 12.0383 97.659 13.7618H98.5005ZM96.8806 9.16735C95.793 7.99182 94.3282 7.41655 92.5862 7.41655V8.25809C94.1293 8.25809 95.3574 8.75998 96.2626 9.73881L96.8806 9.16735ZM103.724 21.5982V22.019H104.144V21.5982H103.724ZM102.647 21.5982H102.226V22.019H102.647V21.5982ZM102.647 7.19101V6.77024H102.226V7.19101H102.647ZM103.643 7.19101H104.064V6.77024H103.643V7.19101ZM103.643 9.61465H103.222L104.031 9.77769L103.643 9.61465ZM109.675 7.0833L110.09 7.15247L110.15 6.79288L109.803 6.68233L109.675 7.0833ZM109.514 8.05275L109.38 8.45192L109.848 8.60764L109.928 8.12193L109.514 8.05275ZM104.747 9.34536L104.4 9.10777L104.398 9.11091L104.396 9.11411L104.747 9.34536ZM103.724 21.1774H102.647V22.019H103.724V21.1774ZM103.067 21.5982V7.19101H102.226V21.5982H103.067ZM102.647 7.61178H103.643V6.77024H102.647V7.61178ZM103.222 7.19101V9.61465H104.064V7.19101H103.222ZM104.031 9.77769C104.396 8.90913 104.894 8.28092 105.513 7.86739C106.131 7.454 106.901 7.23477 107.844 7.23477V6.39323C106.767 6.39323 105.827 6.64527 105.045 7.16768C104.263 7.68994 103.671 8.46205 103.255 9.45162L104.031 9.77769ZM107.844 7.23477C108.427 7.23477 109.002 7.31088 109.547 7.48426L109.803 6.68233C109.163 6.4787 108.499 6.39323 107.844 6.39323V7.23477ZM109.26 7.01412L109.098 7.98358L109.928 8.12193L110.09 7.15247L109.26 7.01412ZM109.646 7.65358C109.115 7.47658 108.559 7.38962 107.952 7.38962V8.23116C108.475 8.23116 108.942 8.30578 109.38 8.45192L109.646 7.65358ZM107.952 7.38962C106.411 7.38962 105.192 7.94992 104.4 9.10777L105.094 9.58296C105.702 8.69418 106.637 8.23116 107.952 8.23116V7.38962ZM104.396 9.11411C103.67 10.2164 103.303 11.5386 103.303 13.0885H104.144C104.144 11.6763 104.477 10.5209 105.099 9.57662L104.396 9.11411ZM103.303 13.0885V21.5982H104.144V13.0885H103.303ZM113.056 7.19101H113.477V6.77024H113.056V7.19101ZM113.056 21.5982V22.019H113.477V21.5982H113.056ZM111.979 21.5982H111.558V22.019H111.979V21.5982ZM111.979 7.19101V6.77024H111.558V7.19101H111.979ZM111.834 3.71713C111.834 3.30974 112.15 3.00687 112.544 3.00687V2.16533C111.699 2.16533 110.992 2.83191 110.992 3.71713H111.834ZM112.544 3.00687C112.924 3.00687 113.228 3.29653 113.228 3.71713H114.069C114.069 2.84512 113.403 2.16533 112.544 2.16533V3.00687ZM113.228 3.71713C113.228 4.10413 112.931 4.40046 112.544 4.40046V5.242C113.396 5.242 114.069 4.56888 114.069 3.71713H113.228ZM112.544 4.40046C112.144 4.40046 111.834 4.091 111.834 3.71713H110.992C110.992 4.58201 111.706 5.242 112.544 5.242V4.40046ZM112.635 7.19101V21.5982H113.477V7.19101H112.635ZM113.056 21.1774H111.979V22.019H113.056V21.1774ZM112.399 21.5982V7.19101H111.558V21.5982H112.399ZM111.979 7.61178H113.056V6.77024H111.979V7.61178ZM130.397 14.7582V15.1789H130.784L130.817 14.7931L130.397 14.7582ZM117.875 14.7582V14.3374H117.433L117.455 14.7792L117.875 14.7582ZM129.589 19.1476L129.934 18.9063L129.672 18.5314L129.32 18.8244L129.589 19.1476ZM130.155 19.9555L130.425 20.2782L130.721 20.0305L130.5 19.7142L130.155 19.9555ZM118.737 8.96835L118.428 8.6827L118.426 8.6843L118.425 8.6859L118.737 8.96835ZM128.593 8.6452L128.299 8.94596L128.302 8.94922L128.305 8.95236L128.593 8.6452ZM117.902 13.7618L117.482 13.7367L117.455 14.1825H117.902V13.7618ZM129.401 13.7618V14.1825H129.822V13.7618H129.401ZM127.893 9.45308L127.584 9.73881L127.586 9.74074L127.588 9.74268L127.893 9.45308ZM130.057 13.4925C130.057 13.6603 130.032 14.0731 129.978 14.7232L130.817 14.7931C130.87 14.1506 130.899 13.7017 130.899 13.4925H130.057ZM130.397 14.3374H117.875V15.1789H130.397V14.3374ZM117.455 14.7792C117.553 16.7465 118.217 18.3957 119.39 19.5547C120.566 20.7156 122.214 21.3457 124.203 21.3457V20.5042C122.396 20.5042 120.974 19.936 119.982 18.956C118.987 17.9741 118.385 16.5399 118.295 14.7371L117.455 14.7792ZM124.203 21.3457C126.25 21.3457 128.478 20.6217 129.859 19.4709L129.32 18.8244C128.116 19.828 126.089 20.5042 124.203 20.5042V21.3457ZM129.245 19.3889L129.81 20.1968L130.5 19.7142L129.934 18.9063L129.245 19.3889ZM129.885 19.6328C128.649 20.6665 126.459 21.5006 124.177 21.5006V22.3421C126.634 22.3421 129.021 21.4527 130.425 20.2782L129.885 19.6328ZM124.177 21.5006C121.69 21.5006 119.968 20.5977 118.86 19.2807C117.743 17.9524 117.219 16.1639 117.219 14.3542H116.377C116.377 16.3146 116.943 18.3097 118.216 19.8224C119.498 21.3465 121.465 22.3421 124.177 22.3421V21.5006ZM117.219 14.3542C117.219 12.264 117.835 10.5913 119.049 9.2508L118.425 8.6859C117.054 10.1999 116.377 12.0819 116.377 14.3542H117.219ZM119.046 9.254C120.276 7.92299 121.883 7.2617 123.907 7.2617V6.42016C121.677 6.42016 119.836 7.1592 118.428 8.6827L119.046 9.254ZM123.907 7.2617C125.695 7.2617 127.147 7.8197 128.299 8.94596L128.887 8.3444C127.561 7.04705 125.889 6.42016 123.907 6.42016V7.2617ZM128.305 8.95236C129.469 10.042 130.057 11.537 130.057 13.4925H130.899C130.899 11.3547 130.248 9.61822 128.88 8.33803L128.305 8.95236ZM123.907 7.41655C122.113 7.41655 120.603 7.99006 119.412 9.15189L120 9.75426C121.017 8.76175 122.308 8.25809 123.907 8.25809V7.41655ZM119.412 9.15189C118.22 10.3154 117.595 11.8485 117.482 13.7367L118.322 13.7868C118.425 12.0665 118.985 10.7451 120 9.75426L119.412 9.15189ZM117.902 14.1825H129.401V13.341H117.902V14.1825ZM129.822 13.7618C129.822 11.8767 129.285 10.3095 128.198 9.16348L127.588 9.74268C128.493 10.6971 128.98 12.0383 128.98 13.7618H129.822ZM128.202 9.16735C127.114 7.99182 125.649 7.41655 123.907 7.41655V8.25809C125.45 8.25809 126.678 8.75998 127.584 9.73881L128.202 9.16735Z" fill="#414141"/>
</g>
<path d="M89.0082 36.3257V32.3974H86.3018V31.9228H89.5435V36.3257C89.5435 38.0627 88.3518 39.1028 86.7462 39.1028C85.1405 39.1028 83.959 37.9718 83.959 36.3257H84.4639C84.4639 37.6688 85.4435 38.5979 86.7462 38.5979C88.0489 38.5979 89.0082 37.79 89.0082 36.3257ZM91.631 32.4378V35.1846H95.7714V35.6794H91.631V38.4666H96.0946V38.9917H91.0958V31.9228H95.9734V32.4378H91.631ZM99.5887 38.3858L101.76 31.9228H102.063L104.224 38.3858L106.415 31.9228H107.001L104.507 39.0119H103.921L102.8 35.6996L101.911 32.9023L101.023 35.6794L99.8916 39.0119H99.3059L96.8318 31.9228H97.4074L99.5887 38.3858ZM108.485 32.4378V35.1846H112.625V35.6794H108.485V38.4666H112.948V38.9917H107.95V31.9228H112.827V32.4378H108.485ZM114.153 31.9228H114.698V38.4767H118.677V38.9917H114.153V31.9228ZM124.734 33.0235L124.29 33.2861C123.775 32.458 122.946 32.3368 122.149 32.3267C121.321 32.3267 120.008 32.6297 120.008 33.7607C120.008 34.6595 120.977 34.8715 122.169 35.0937C123.532 35.3563 124.946 35.5986 124.946 37.1235C124.936 38.7191 123.33 39.1028 122.149 39.1028C121.048 39.1028 119.796 38.6484 119.25 37.5678L119.735 37.3255C120.169 38.1838 121.28 38.608 122.149 38.608C123.017 38.608 124.401 38.3656 124.401 37.1134C124.411 36.053 123.239 35.8208 122.078 35.5986C120.785 35.3462 119.463 35.0836 119.463 33.7809C119.432 32.2863 120.987 31.8218 122.149 31.8218C123.159 31.8218 124.037 31.9834 124.734 33.0235Z" fill="#3A3A3C"/>
</svg>
